# xmcd
#
# Track frame offsets:
#	150
#	21300
#	36600
#	51150
#	63150
#	77512
#	91058
#	105908
#	118058
#	140216
#	155860
#	171910
#	191410
#	208283
#
# Disc length: 2968 seconds
#
# Revision: 1
# Processed by: cddbd v1.5.2PL0 Copyright (c) Steve Scherf et al.
# Submitted via: audiograbber 1.83.01
#
DISCID=c70b960e
DTITLE=Gary Ellis - Believing In Me
DYEAR=2019
DGENRE=Country
TTITLE0=I'll Be Home Soon
TTITLE1=Do It All Over Again
TTITLE2=Farther Down The Line
TTITLE3=Happy Birthday My Darlin
TTITLE4=Saddle Up and Ride
TTITLE5=Tennesseee Play Top Box
TTITLE6=Storms Never Last
TTITLE7=Country Baladeer
TTITLE8=Believing In Me
TTITLE9=You've Got Her Eyes
TTITLE10=Warwick Gold Cup
TTITLE11=Smell The Rose and Read The Card
TTITLE12=Fly Like A Bird
TTITLE13=Guitar Boogie (Bonus Track)
EXTD=
EXTT0=
EXTT1=
EXTT2=
EXTT3=
EXTT4=
EXTT5=
EXTT6=
EXTT7=
EXTT8=
EXTT9=
EXTT10=
EXTT11=
EXTT12=
EXTT13=
PLAYORDER=
